<?xml version="1.0" encoding="utf-8"?>
<!-- Generator: Adobe Illustrator 25.0.0, SVG Export Plug-In . SVG Version: 6.00 Build 0)  -->
<svg version="1.1" id="Layer_1" xmlns="http://www.w3.org/2000/svg" xmlns:xlink="http://www.w3.org/1999/xlink" x="0px" y="0px"
	 viewBox="0 0 145.36 50" style="enable-background:new 0 0 145.36 50;" xml:space="preserve">
<style type="text/css">
	.st0{fill:#FFFFFF;}
</style>
<g>
	<g>
		<polyline class="st0" points="26.22,3 4.25,24.98 26.27,47 		"/>
		<path d="M26.27,50c-0.77,0-1.54-0.29-2.12-0.88L0,24.98l24.1-24.1c1.17-1.17,3.08-1.17,4.25,0c1.17,1.17,1.17,3.08,0,4.25
			L8.5,24.98l19.89,19.89c1.17,1.17,1.17,3.08,0,4.25C27.8,49.71,27.03,50,26.27,50z"/>
	</g>
	<g>
		<line class="st0" x1="4.25" y1="24.98" x2="142.36" y2="24.98"/>
		<path d="M142.36,27.98H4.25c-1.66,0-3-1.35-3-3c0-1.66,1.35-3,3-3h138.11c1.66,0,3,1.35,3,3
			C145.36,26.64,144.02,27.98,142.36,27.98z"/>
	</g>
</g>
</svg>
