<?xml version="1.0" encoding="utf-8"?>
<!-- Generator: Adobe Illustrator 24.3.0, SVG Export Plug-In . SVG Version: 6.00 Build 0)  -->
<svg version="1.1" id="Layer_1" xmlns="http://www.w3.org/2000/svg" xmlns:xlink="http://www.w3.org/1999/xlink" x="0px" y="0px"
	 viewBox="0 0 106.08 100" style="enable-background:new 0 0 106.08 100;" xml:space="preserve">
<style type="text/css">
	.st0{fill:#B2AD7F;}
	.st1{fill:#4D6711;}
</style>
<path class="st0" d="M21.2,50.72C9.17,47.85,0.29,40.4,0.29,25.79C0.29,9.74,12.61,0,27.79,0c18.63,0,30.37,14.33,30.37,35.53
	c0,30.66-20.34,49.29-58.17,50.43V74.5c19.49-2.86,30.95-8.6,32.95-23.78H21.2z"/>
<path class="st1" d="M63.08,59c-14-3.33-24.33-12-24.33-29c0-18.67,14.33-30,32-30c21.67,0,35.33,16.67,35.33,41.33
	c0,35.67-23.67,57.33-67.67,58.67V86.67c22.67-3.33,36-10,38.33-27.67H63.08z"/>
<text transform="matrix(1 0 0 1 153.8864 24.1786)" style="font-family:'TiemposHeadline-Bold'; font-size:126px;">“</text>
</svg>
